<svg xmlns="http://www.w3.org/2000/svg" viewBox="0 0 119.69 119.29"><defs><style>.cls-1{fill:#fff;}</style></defs><g id="Layer_2"><g id="Layer_1-2"><path class="cls-1" d="M60.26,0c13.49,0,27,0,40.48,0,11.33,0,18.86,7.36,18.89,18.66q.12,41,0,81.93c0,11.2-7.34,18.56-18.54,18.6q-41.23.14-82.46,0C7.62,119.18.22,111.87.13,101,0,85.64.06,70.3.12,55c0-5.37,4.09-8.42,8.21-6.29C10.9,50,11.4,52.33,11.39,55c0,14.59,0,29.18,0,43.77,0,7.42,1.83,9.22,9.33,9.23H99.41c7,0,9-2,9-8.82q0-39.47,0-78.94c0-7-2-9-8.87-9H20.05c-6.61,0-8.65,2.08-8.68,8.79,0,3.11.08,6.23,0,9.35-.13,3.66-2.2,5.77-5.47,5.8S.31,33.11.17,29.53A103.77,103.77,0,0,1,.25,16.45C1.1,6.73,8.46.09,18.27,0,32.27,0,46.26,0,60.26,0Z"/><path class="cls-1" d="M65.52,50.32q0,15,0,29.91a33.12,33.12,0,0,1-.1,3.73c-.41,3.38-2.54,5.34-5.69,5.2s-5.1-2-5.36-5.13c-.22-2.6-.12-5.23-.13-7.85,0-8.59,0-17.19,0-26.89-2.83,2.81-5,5-7.24,7.2-3.26,3.21-6.67,3.6-9.14,1.07s-2.09-5.73,1.27-9.1c5.3-5.3,10.58-10.6,15.91-15.86,3.5-3.45,6.16-3.48,9.64-.05Q73,40.68,81.11,49c2.9,2.92,3.15,6.16.84,8.57s-5.84,2.25-8.86-.75c-2.27-2.25-4.42-4.63-6.62-7Z"/></g></g></svg>