<svg xmlns="http://www.w3.org/2000/svg" viewBox="0 0 35.89 35.88"><defs><style>.cls-1{fill:none;stroke:#fff;}.cls-2{font-size:7px;fill:#fff;font-family:CourierNewPS-BoldMT, Courier New;font-weight:700;}</style></defs><g id="Layer_2"><g id="Layer_1-2"><g id="ArrowUp"><path class="cls-1" d="M9.22,5.34H26.67a3.88,3.88,0,0,1,3.88,3.88V26.66a3.88,3.88,0,0,1-3.88,3.88H9.22a3.87,3.87,0,0,1-3.87-3.87V9.22A3.88,3.88,0,0,1,9.22,5.34Z"/><path class="cls-1" d="M4.38.5H31.52a3.88,3.88,0,0,1,3.88,3.88V31.5a3.88,3.88,0,0,1-3.88,3.88H4.37A3.87,3.87,0,0,1,.5,31.5V4.38A3.88,3.88,0,0,1,4.38.5Z"/><text class="cls-2" transform="matrix(0, 1, 1, 0, 19.89, 10.33)">&lt;</text></g></g></g></svg>