<svg xmlns="http://www.w3.org/2000/svg" viewBox="0 0 119.51 119.51"><defs><style>.cls-1{fill:#fff;}.cls-2{fill:#fff;}</style></defs><g id="Layer_2"><g id="Layer_1-2"><path class="cls-1" d="M0,13.18c1-.2.89-1.12,1.16-1.74C4.37,4,10,.25,18.08.14c6.12-.08,12.24,0,18.36,0,21,0,42,.31,62.94-.11,12.32-.25,20.34,8.37,20.13,20.18-.46,26.42-.14,52.85-.15,79.27,0,12.93-7,19.88-19.83,19.88-25.23,0-50.46-.32-75.68.16C12.75,119.71,4.35,116.82,0,106ZM11.25,60c0,13.46,0,26.92,0,40.38,0,5.42,2.33,7.75,7.76,7.76q40.65,0,81.3,0c5.48,0,7.77-2.25,7.77-7.69q0-40.76,0-81.51c0-5.29-2.18-7.51-7.52-7.51q-40.84-.06-81.67,0c-5.47,0-7.63,2.29-7.64,7.81Q11.23,39.58,11.25,60Z"/><path class="cls-2" d="M50.28,54.14H69.55c4.49,0,9-.06,13.48,0,4,.06,6.18,2.05,6.26,5.38.09,3.48-2.23,5.78-6.31,5.81-10.23.09-20.46,0-30.69,0H50c1.86,3.05,4.46,4.92,6.59,7.19,3.15,3.36,3.57,6.65,1,9.13s-5.67,2.16-9.11-1.25q-7.83-7.76-15.61-15.58C29,61,29,58.49,32.74,54.72q7.89-8,15.87-15.84c3.27-3.24,6.64-3.59,9.11-1s2.06,5.79-1.29,9.08c-2.18,2.14-4.5,4.13-6.76,6.19Z"/></g></g></svg>