<svg xmlns="http://www.w3.org/2000/svg" viewBox="0 0 170.27 199.62"><defs><style>.cls-1{fill:#fff;}</style></defs><g id="Layer_2"><g id="Layer_1-2"><path class="cls-1" d="M145.12,199.62a2.06,2.06,0,0,1-.71-2.44,2,2,0,0,1,2.08-1.14c4.38.24,6.4-2.54,7.8-6.07a28.65,28.65,0,0,0,1.63-8.76,9,9,0,0,1,.16-1.73,1.67,1.67,0,0,1,1.88-1.34c.87.07,1.6.56,1.6,1.43.06,6.62-.77,13-5.87,17.9a12.59,12.59,0,0,1-3.9,2.15Z"/><path class="cls-1" d="M32.31,25.1c-.49-7,4.6-13.4,13.38-13.87,8.47-.46,16.92-1.43,25.38-2.15,2.64-.22,5.3-.37,8-.51.92-.05,1.91,0,2.26,1.07a2.35,2.35,0,0,1-.85,2.44,7.33,7.33,0,0,1-4.72,2.09c-6.59.59-13.18,1.09-19.77,1.65-4,.34-8,.62-12,1.15a6.79,6.79,0,0,0-6.21,7.25c.24,5.5.8,11,1.25,16.48s.95,11,1.42,16.46q.92,10.56,1.81,21.11c.58,6.79,1.12,13.57,1.7,20.35.59,7,1.22,14.08,1.81,21.11.58,6.79,1.12,13.57,1.69,20.35.6,7.1,1.24,14.21,1.83,21.31.58,6.91,1.2,13.82,1.66,20.74.3,4.3,2,7.24,5.35,8.2,2.16.61,4.39.27,6.59.08,7-.58,14.07-1.2,21.11-1.81,2.39-.21,4.78-.38,7.16-.64A7.52,7.52,0,0,1,96,189c.92.55,1.81,1.25,1.6,2.44s-1.38,1.5-2.41,1.61c-2.89.32-5.8.56-8.71.81-8.91.75-17.83,1.44-26.73,2.27-7.19.67-13.51-5-14.09-12.54-.8-10.34-1.78-20.67-2.64-31-.71-8.46-1.34-16.93-2.05-25.39-.84-9.94-1.76-19.88-2.6-29.83C37.62,88.91,37,80.45,36.27,72,35.43,62,34.53,52.1,33.68,42.16,33.2,36.47,32.77,30.79,32.31,25.1Z"/><path class="cls-1" d="M115.75,185.87c6.68.47,13.37.36,20.05.48,5.87.12,8.7-2.7,8.81-8.6q.39-19.56.87-39.13c.23-9.73.5-19.46.75-29.19L147,77.12q.38-14.51.75-29c.24-9.21.54-18.42.72-27.63.11-5.57-2.87-8.47-8.49-8.57-8-.13-16-.31-23.94-.47a5.32,5.32,0,0,1-1,0c-1.17-.23-2.75,0-3-1.56s1.09-2.37,2.3-3A9.35,9.35,0,0,1,119.09,6c7.13.21,14.26.5,21.4.63,8.54.15,14,6.28,13.43,14.84-.4,5.43-.16,10.9-.42,16.35-.38,8-.33,16-.51,23.94q-.39,16.93-.84,33.87-.35,13.53-.71,27.05c-.29,11.36-.55,22.71-.85,34.07-.19,7.33-.5,14.65-.66,22s-5.38,13.17-12.83,13.13c-8.11-.05-16.23-.1-24.32-.69a5.66,5.66,0,0,1-3.61-1.75,2.16,2.16,0,0,1-.87-2.23,2,2,0,0,1,2.19-1.28C112.24,185.86,114,185.87,115.75,185.87Z"/><path class="cls-1" d="M107.66,26.16q16.74.38,33.47.77c2.32.06,3,.65,2.89,2.92C143.69,42.23,143.3,54.62,143,67c-.16,5.39-.14,10.77-.37,16.15-.37,8.56-.34,17.13-.53,25.69-.24,10.58-.53,21.15-.8,31.72q-.34,13.23-.71,26.46c-.07,2.7-.45,3.15-3,3.09-10.71-.24-21.41-.52-32.11-.78l-.39,0c-4.37-.43-5.2-1.49-3.86-5.63s3-8.31,4.55-12.43a10,10,0,0,0-.48-8.62c-4.64-8.93-9.17-17.91-13.86-26.81a8.91,8.91,0,0,1,.12-9.2c5.23-9.56,10.3-19.22,15.44-28.83a11.29,11.29,0,0,0,.86-8.46c-3.14-12.45-6.18-24.92-9.23-37.39-1.23-5.05-.59-5.83,4.62-5.84,1.5,0,3,0,4.48,0Zm33,14.45h.14q0-3.3,0-6.62c0-3-1-4.08-4.08-4.15l-8.17-.19c-8.24-.19-16.47-.4-24.71-.58-1.72,0-2.5.88-2.35,2.58a15.14,15.14,0,0,0,.37,2.1c2.91,11.7,5.74,23.42,8.79,35.09a13.91,13.91,0,0,1-1.38,10.83c-5,9.16-9.85,18.42-14.81,27.62a8.06,8.06,0,0,0,0,8.14c4.65,8.92,9.2,17.89,13.85,26.81a10.24,10.24,0,0,1,.55,9c-1.51,3.86-2.89,7.78-4.26,11.7-.76,2.19,0,3.37,2.19,3.44q13.32.44,26.65.77c2.87.07,4.06-1.18,4.15-3.95.24-8,.59-16.08.72-24.12.16-10.38.48-20.75.77-31.13.27-10,.46-20,.78-30C140.27,65.52,140.44,53.07,140.7,40.61Z"/><path class="cls-1" d="M57.84,174.41c-2.88,0-3,0-3.31-2.67-.56-5.41-1-10.84-1.47-16.26q-.95-10.84-1.85-21.69c-.57-6.84-1.11-13.69-1.68-20.54s-1.21-13.81-1.8-20.71c-.45-5.3-.86-10.6-1.31-15.89-.6-7-1.22-14.07-1.81-21.11C44,48.7,43.43,41.85,42.94,35c-.2-2.71.09-3,2.82-3.3,5.28-.5,10.59-.88,15.88-1.31L66.1,30c3-.24,5.05,1.17,6.3,3.88q5.67,12.18,11.37,24.34c2.33,5,4.63,10,7,15a11.11,11.11,0,0,1,.4,9.2C88.05,90.67,85.08,99,82,107.25a9.71,9.71,0,0,0,.74,8.75c4.91,8.48,9.68,17,14.57,25.53a9,9,0,0,1,.44,8.89c-2.48,5.36-4.9,10.75-7.12,16.22-1.42,3.52-3.72,5.4-7.54,5.69C74.62,173,66.17,173.71,57.84,174.41Zm4.26-3.34c6.6-.53,13.46-1,20.3-1.66a6.34,6.34,0,0,0,5.51-4c2.1-4.82,4.14-9.67,6.41-14.41,1.69-3.51,1.33-6.6-.64-9.92-4.78-8.11-9.29-16.37-14-24.51a10.32,10.32,0,0,1-.76-9.47c3.1-8.12,6-16.32,9.08-24.45a10.85,10.85,0,0,0-.39-9.2c-2-3.94-3.81-8-5.7-12Q76,49,70.16,36.64c-1-2.22-2.72-3.67-5.12-3.56-4.91.24-9.82.69-14.71,1.25-3.74.42-4.3,1.12-4.06,4.93.44,6.66,1,13.31,1.58,20q.78,9.5,1.6,19c.62,7.1,1.26,14.2,1.86,21.3.58,6.78,1.08,13.57,1.66,20.35.72,8.45,1.49,16.91,2.23,25.36.63,7.3,1.2,14.6,1.9,21.88C57.44,170.68,58.13,171.16,62.1,171.07Z"/><path class="cls-1" d="M20,25.91a34.27,34.27,0,0,1,3.3-10.11C25.65,11.07,28.78,7,34,5.12a15.31,15.31,0,0,1,2.81-.74A1.81,1.81,0,0,1,39,5.82a1.66,1.66,0,0,1-1.29,2.09C29,10,26.35,17.11,24.06,24.51c-.2.68-.29,1.4-.53,2.07a1.73,1.73,0,0,1-2.09,1.31A1.81,1.81,0,0,1,20,25.91Z"/><path class="cls-1" d="M92.23,185.71c-5.21.06-7.45-1.72-7.62-5.49a6.2,6.2,0,0,1,8.58-6c.62.26,1.25.59,1.15,1.37s-.71.92-1.3,1c-1.14.2-2.31.29-3.46.5-1.69.31-2.08,1.56-2,3.05a2.36,2.36,0,0,0,2.36,2.57,22.51,22.51,0,0,0,4.85-.23,10,10,0,0,1,4.44.23c.57.17,1.19.39,1.2,1.08s-.61,1-1.19,1.09A45.49,45.49,0,0,1,92.23,185.71Z"/><path class="cls-1" d="M2,0A12.09,12.09,0,0,1,3.26.37q7.38,3,14.75,6c1.06.44,2.09,1,1.74,2.41A1.71,1.71,0,0,1,17.19,10Q9.27,6.85,1.36,3.61A1.88,1.88,0,0,1,.06,1.3C.26.42.89,0,2,0Z"/><path class="cls-1" d="M158,19.3a1.75,1.75,0,0,1-1.75-2.47,5.31,5.31,0,0,1,1-1.4c3.1-3.32,6.21-6.61,9.31-9.91.84-.89,1.77-1.76,3-.72s.7,2.22-.21,3.2c-3.22,3.46-6.47,6.9-9.71,10.33C159.13,18.85,158.6,19.35,158,19.3Z"/><path class="cls-1" d="M34.23,95.24a6.53,6.53,0,0,1-.43,1.16c-1.83,3.14-3.66,6.27-5.53,9.39-.67,1.11-1.54,2.13-3,1.21s-.86-2-.24-3.09q2.79-4.78,5.62-9.56a2,2,0,0,1,2.25-1.14C33.79,93.42,34.22,94,34.23,95.24Z"/><path class="cls-1" d="M158,22.41a12.08,12.08,0,0,1,1.32.51l9.26,4.9c1.2.64,2.14,1.52,1.38,2.92s-2,1-3.19.38c-3.14-1.69-6.29-3.33-9.42-5-.89-.48-1.6-1.18-1.23-2.34A1.91,1.91,0,0,1,158,22.41Z"/><path class="cls-1" d="M170.2,184.28c-.71,3.32-1.73,7-4.57,9.81a4.08,4.08,0,0,1-1.84,1,1.77,1.77,0,0,1-2.06-.68,1.49,1.49,0,0,1,.11-2.12c2.89-2.29,3.92-5.52,4.77-8.88a1.82,1.82,0,0,1,2.12-1.57C169.82,182,170.26,182.76,170.2,184.28Z"/><path class="cls-1" d="M9.71,18.1c-1.37,0-2.73,0-4.09,0s-2.42-.46-2.36-2S4.4,14.39,5.62,14.4h8.17c1.22,0,2.31.31,2.36,1.71s-1.1,1.93-2.36,2S11.07,18.1,9.71,18.1Z"/><path class="cls-1" d="M107.72,20.37c-.27,0-.72-.08-1.16-.16-.73-.15-1.8-.05-1.83-1s1-1.43,1.88-1.6a9.92,9.92,0,0,1,2.11-.09c.89,0,1.75.22,1.78,1.34s-.87,1.45-1.82,1.55C108.42,20.4,108.16,20.37,107.72,20.37Z"/></g></g></svg>