<svg xmlns="http://www.w3.org/2000/svg" viewBox="0 0 227.73 119.56"><defs><style>.cls-1{fill:#fff;font-size:27.36px;font-family:CourierNewPS-BoldMT, Courier New;font-weight:700;}</style></defs><g id="Layer_2"><g id="Layer_1-2"><path fill="#fff" d="M114.06,119.55q-47.31,0-94.61,0c-8.17,0-14.5-3-17.9-10.8A13.18,13.18,0,0,1,.33,104C.14,99.09,0,94.14.26,89.22c.19-3.65,2.38-5.2,6-5A4.94,4.94,0,0,1,11.07,88a20.47,20.47,0,0,1,.53,4.42c.08,3.13,0,6.27,0,9.41.09,3.56,2.1,5.67,5.62,6a26.3,26.3,0,0,0,2.81.12q25.77,0,51.54,0c24,0,48,.19,72,.19,21.57,0,43.14-.15,64.7-.25,5.85,0,7.91-2.1,7.91-8q0-40.23,0-80.47c0-6-2-8-8.13-8Q189,11.48,170,11.46c-23.84-.06-47.69-.17-71.53-.16-26.19,0-52.39.14-78.58.22-.55,0-1.1,0-1.65,0-4.71.29-6.58,2.27-6.58,7,0,14.28,0,28.56,0,42.83A32.94,32.94,0,0,1,11.12,67a5.13,5.13,0,0,1-5.27,4.44A5.26,5.26,0,0,1,.24,66.82,24.69,24.69,0,0,1,0,63.07Q0,41.79,0,20.48a33.25,33.25,0,0,1,.52-6.31C2.23,5.69,8.22.71,17.29.08c1-.07,2-.07,3.06-.07h188c9.12,0,15.35,4.18,18.73,12.6a8.25,8.25,0,0,1,.55,3c0,29.49.19,59-.11,88.47-.06,6.14-5.85,13.84-14,15a50.11,50.11,0,0,1-7,.47Q160.3,119.58,114.06,119.55Z"/><text class="cls-1" transform="translate(112.72 47.56)">enter</text></g></g></svg>