<svg xmlns="http://www.w3.org/2000/svg" viewBox="0 0 55.28 72.7"><defs><style>.cls-1{fill:none;stroke:#fff;}.cls-2{font-size:7px;fill:#fff;font-family:CourierNewPS-BoldMT, Courier New;font-weight:700;}</style></defs><g id="Layer_2"><g id="Layer_1-2"><g id="Enter"><path class="cls-1" d="M54.78,68.32V4.38A3.73,3.73,0,0,0,50.9.5H4.38A3.73,3.73,0,0,0,.5,4.38V31.5a3.73,3.73,0,0,0,3.88,3.88H6.32a3.71,3.71,0,0,1,3.87,3.87V68.32a3.73,3.73,0,0,0,3.88,3.88H50.9A3.73,3.73,0,0,0,54.78,68.32Z"/><path class="cls-1" d="M46.06,5.34H9.22A3.72,3.72,0,0,0,5.35,9.22V26.66a3.72,3.72,0,0,0,3.87,3.88h1.94A3.72,3.72,0,0,1,15,34.41V63.48a3.72,3.72,0,0,0,3.88,3.87H46.06a3.71,3.71,0,0,0,3.87-3.87V9.22A3.72,3.72,0,0,0,46.06,5.34Z"/><text class="cls-2" transform="translate(17.95 14.23)">enter</text></g></g></g></svg>