<svg xmlns="http://www.w3.org/2000/svg" viewBox="0 0 119.4 119.3"><defs><style>.cls-1{fill: #fff;font-size:27.36px;font-family:CourierNewPS-BoldMT, Courier New;font-weight:700;}</style></defs><g id="Layer_2"><g id="Layer_1-2"><path fill="#fff" d="M119.4,105.87c-1.12.46-1,1.65-1.36,2.49-3.18,6.9-8.6,10.78-16.12,10.82q-42.15.25-84.32,0c-10,0-17.33-7.61-17.55-17.62C0,97.85,0,94.11.05,90.37c.07-4,2-6.19,5.37-6.28s5.73,2.22,5.85,6.28c.11,3.49,0,7,0,10.47.09,4.73,2.43,7.15,7.17,7.16q41.22.06,82.45,0c4.73,0,7.2-2.49,7.2-7.18q.06-41.14,0-82.28c0-4.79-2.32-7.22-7.1-7.23q-41.22-.09-82.44,0c-5.08,0-7.27,2.29-7.29,7.37,0,14.83,0,29.67,0,44.51a15.28,15.28,0,0,1-.42,4.05,5.07,5.07,0,0,1-5.63,3.93,5.18,5.18,0,0,1-5.13-5C0,65.29,0,64.41,0,63.54,0,48.7,0,33.87.05,19c0-11.77,7.07-19,18.79-19,27.23-.06,54.47,0,81.7,0,9.84,0,15.54,5.21,18.86,13.84Z"/><text class="cls-1" transform="translate(33.67 44)">esc</text></g></g></svg>