<svg xmlns="http://www.w3.org/2000/svg" viewBox="0 0 848.14 241.27"><defs><style>.cls-1{fill:none;stroke:#fff;}.cls-2{font-size:7px;fill:#fff;font-family:CourierNewPS-BoldMT, Courier New;font-weight:700;}</style></defs><g id="Layer_2"><g id="Layer_1-2"><polygon class="cls-1" points="39.27 39.25 39.27 0.5 0.5 0.5 0.5 39.25 19.89 39.25 39.27 39.25"/><polygon class="cls-1" points="225.37 39.25 225.37 0.5 76.1 0.5 76.1 39.25 211.59 39.25 225.37 39.25"/><polygon class="cls-1" points="390.14 39.25 390.14 0.5 240.88 0.5 240.88 39.25 381.33 39.25 390.14 39.25"/><polygon class="cls-1" points="554.92 39.25 554.92 0.5 405.65 0.5 405.65 39.25 551.07 39.25 554.92 39.25"/><rect class="cls-1" x="570.43" y="0.5" width="112.44" height="38.75"/><path class="cls-1" d="M6.31,167.14h34.9A3.88,3.88,0,0,1,45.09,171v27.13A3.88,3.88,0,0,1,41.21,202H6.32a3.88,3.88,0,0,1-3.88-3.88V171A3.87,3.87,0,0,1,6.31,167.14Z"/><path class="cls-1" d="M11.16,172h25.2a3.88,3.88,0,0,1,3.88,3.88V193.3a3.87,3.87,0,0,1-3.87,3.87H11.16a3.88,3.88,0,0,1-3.88-3.88V175.86A3.88,3.88,0,0,1,11.16,172Z"/><rect class="cls-1" x="47.02" y="203.96" width="42.65" height="34.88" rx="3.88"/><path class="cls-1" d="M55.75,208.8H81a3.88,3.88,0,0,1,3.88,3.88v17.44A3.88,3.88,0,0,1,80.95,234H55.75a3.87,3.87,0,0,1-3.87-3.87V212.68A3.88,3.88,0,0,1,55.75,208.8Z"/><rect class="cls-1" x="91.61" y="203.96" width="42.65" height="34.88" rx="3.88"/><path class="cls-1" d="M100.33,208.8h25.2a3.88,3.88,0,0,1,3.88,3.88v17.44a3.87,3.87,0,0,1-3.87,3.87h-25.2a3.88,3.88,0,0,1-3.88-3.88V212.68A3.88,3.88,0,0,1,100.33,208.8Z"/><rect class="cls-1" x="376.58" y="203.96" width="42.65" height="34.88" rx="3.88"/><path class="cls-1" d="M385.3,208.8h25.2a3.88,3.88,0,0,1,3.88,3.88v17.44A3.88,3.88,0,0,1,410.5,234H385.3a3.88,3.88,0,0,1-3.88-3.88V212.68A3.87,3.87,0,0,1,385.3,208.8Z"/><rect class="cls-1" x="421.16" y="203.96" width="42.65" height="34.88" rx="3.88"/><path class="cls-1" d="M429.89,208.8h25.2a3.88,3.88,0,0,1,3.88,3.88v17.44a3.88,3.88,0,0,1-3.88,3.88h-25.2a3.87,3.87,0,0,1-3.87-3.87V212.68A3.88,3.88,0,0,1,429.89,208.8Z"/><rect class="cls-1" x="465.75" y="203.96" width="42.65" height="34.88" rx="3.88"/><path class="cls-1" d="M474.47,208.8h25.2a3.88,3.88,0,0,1,3.88,3.88v17.44a3.88,3.88,0,0,1-3.88,3.88h-25.2a3.87,3.87,0,0,1-3.87-3.87V212.68A3.88,3.88,0,0,1,474.47,208.8Z"/><path class="cls-1" d="M519.06,208.8h25.2a3.87,3.87,0,0,1,3.87,3.87v17.44a3.88,3.88,0,0,1-3.88,3.88h-25.2a3.88,3.88,0,0,1-3.88-3.88V212.68A3.88,3.88,0,0,1,519.06,208.8Z"/><rect class="cls-1" x="510.33" y="203.96" width="42.65" height="34.88" rx="3.88"/><path class="cls-1" d="M92.58,172H110a3.88,3.88,0,0,1,3.88,3.88V193.3a3.88,3.88,0,0,1-3.88,3.88H92.58a3.87,3.87,0,0,1-3.87-3.87V175.86A3.88,3.88,0,0,1,92.58,172Z"/><path class="cls-1" d="M87.73,167.14h27.14a3.88,3.88,0,0,1,3.88,3.88v27.13a3.87,3.87,0,0,1-3.87,3.87H87.73a3.88,3.88,0,0,1-3.88-3.88V171A3.88,3.88,0,0,1,87.73,167.14Z"/><path class="cls-1" d="M129.41,172h17.45a3.88,3.88,0,0,1,3.88,3.88V193.3a3.88,3.88,0,0,1-3.88,3.88H129.41a3.88,3.88,0,0,1-3.88-3.88V175.86A3.87,3.87,0,0,1,129.41,172Z"/><path class="cls-1" d="M124.56,167.14h27.14a3.88,3.88,0,0,1,3.88,3.88v27.13a3.87,3.87,0,0,1-3.87,3.87H124.57a3.88,3.88,0,0,1-3.88-3.88V171A3.88,3.88,0,0,1,124.56,167.14Z"/><rect class="cls-1" x="162.37" y="171.99" width="25.2" height="25.19" rx="3.88"/><path class="cls-1" d="M161.4,167.14h27.14a3.88,3.88,0,0,1,3.88,3.88v27.13a3.87,3.87,0,0,1-3.87,3.87H161.4a3.88,3.88,0,0,1-3.88-3.88V171A3.88,3.88,0,0,1,161.4,167.14Z"/><path class="cls-1" d="M198.23,167.14h27.14a3.88,3.88,0,0,1,3.88,3.88v27.13a3.87,3.87,0,0,1-3.87,3.87H198.23a3.88,3.88,0,0,1-3.88-3.88V171A3.88,3.88,0,0,1,198.23,167.14Z"/><path class="cls-1" d="M203.08,172h17.45a3.87,3.87,0,0,1,3.87,3.87V193.3a3.88,3.88,0,0,1-3.88,3.88H203.08a3.88,3.88,0,0,1-3.88-3.88V175.86A3.88,3.88,0,0,1,203.08,172Z"/><path class="cls-1" d="M239.91,172h17.45a3.88,3.88,0,0,1,3.88,3.88V193.3a3.87,3.87,0,0,1-3.87,3.87H239.91A3.88,3.88,0,0,1,236,193.3V175.86A3.88,3.88,0,0,1,239.91,172Z"/><path class="cls-1" d="M235.06,167.14H262.2a3.88,3.88,0,0,1,3.88,3.88v27.13A3.88,3.88,0,0,1,262.2,202H235.06a3.88,3.88,0,0,1-3.88-3.88V171A3.87,3.87,0,0,1,235.06,167.14Z"/><path class="cls-1" d="M276.74,172h17.45a3.87,3.87,0,0,1,3.87,3.87V193.3a3.88,3.88,0,0,1-3.88,3.88H276.74a3.88,3.88,0,0,1-3.88-3.88V175.86A3.88,3.88,0,0,1,276.74,172Z"/><path class="cls-1" d="M271.89,167.14H299a3.88,3.88,0,0,1,3.88,3.88v27.13A3.88,3.88,0,0,1,299,202H271.89a3.88,3.88,0,0,1-3.88-3.88V171A3.87,3.87,0,0,1,271.89,167.14Z"/><path class="cls-1" d="M313.57,172H331a3.88,3.88,0,0,1,3.88,3.88V193.3a3.87,3.87,0,0,1-3.87,3.87H313.57a3.88,3.88,0,0,1-3.88-3.88V175.86A3.88,3.88,0,0,1,313.57,172Z"/><path class="cls-1" d="M308.72,167.14h27.14a3.88,3.88,0,0,1,3.88,3.88v27.13a3.88,3.88,0,0,1-3.88,3.88H308.73a3.88,3.88,0,0,1-3.88-3.88V171A3.87,3.87,0,0,1,308.72,167.14Z"/><path class="cls-1" d="M350.4,172h17.45a3.88,3.88,0,0,1,3.88,3.88V193.3a3.87,3.87,0,0,1-3.87,3.87H350.4a3.88,3.88,0,0,1-3.88-3.88V175.86A3.88,3.88,0,0,1,350.4,172Z"/><path class="cls-1" d="M345.56,167.14H372.7a3.88,3.88,0,0,1,3.88,3.88v27.13A3.88,3.88,0,0,1,372.7,202H345.56a3.88,3.88,0,0,1-3.88-3.88V171A3.87,3.87,0,0,1,345.56,167.14Z"/><path class="cls-1" d="M387.24,172h17.45a3.87,3.87,0,0,1,3.87,3.87V193.3a3.88,3.88,0,0,1-3.88,3.88H387.24a3.88,3.88,0,0,1-3.88-3.88V175.86A3.88,3.88,0,0,1,387.24,172Z"/><path class="cls-1" d="M382.39,167.14h27.14a3.88,3.88,0,0,1,3.88,3.88v27.13a3.88,3.88,0,0,1-3.88,3.88H382.39a3.88,3.88,0,0,1-3.88-3.88V171A3.87,3.87,0,0,1,382.39,167.14Z"/><path class="cls-1" d="M424.07,172h17.45a3.88,3.88,0,0,1,3.88,3.88V193.3a3.88,3.88,0,0,1-3.88,3.88H424.07a3.87,3.87,0,0,1-3.87-3.87V175.86A3.88,3.88,0,0,1,424.07,172Z"/><path class="cls-1" d="M419.22,167.14h27.14a3.87,3.87,0,0,1,3.87,3.87v27.13a3.88,3.88,0,0,1-3.88,3.88H419.22a3.88,3.88,0,0,1-3.88-3.88V171A3.88,3.88,0,0,1,419.22,167.14Z"/><path class="cls-1" d="M460.9,172h17.45a3.88,3.88,0,0,1,3.88,3.88V193.3a3.88,3.88,0,0,1-3.88,3.88H460.9A3.87,3.87,0,0,1,457,193.3V175.86A3.88,3.88,0,0,1,460.9,172Z"/><path class="cls-1" d="M456.05,167.14h27.14a3.88,3.88,0,0,1,3.88,3.88v27.13A3.88,3.88,0,0,1,483.2,202H456.06a3.88,3.88,0,0,1-3.88-3.88V171A3.87,3.87,0,0,1,456.05,167.14Z"/><path class="cls-1" d="M75.13,135.17H92.58A3.88,3.88,0,0,1,96.46,139v17.44a3.88,3.88,0,0,1-3.88,3.88H75.13a3.87,3.87,0,0,1-3.87-3.87V139A3.88,3.88,0,0,1,75.13,135.17Z"/><path class="cls-1" d="M70.29,130.33H97.43a3.88,3.88,0,0,1,3.88,3.88v27.13a3.87,3.87,0,0,1-3.87,3.87H70.29a3.88,3.88,0,0,1-3.88-3.88V134.2A3.88,3.88,0,0,1,70.29,130.33Z"/><path class="cls-1" d="M112,135.17h17.45a3.88,3.88,0,0,1,3.88,3.88v17.44a3.88,3.88,0,0,1-3.88,3.88H112a3.88,3.88,0,0,1-3.88-3.88V139A3.87,3.87,0,0,1,112,135.17Z"/><path class="cls-1" d="M107.12,130.33h27.14a3.88,3.88,0,0,1,3.88,3.88v27.13a3.87,3.87,0,0,1-3.87,3.87H107.12a3.88,3.88,0,0,1-3.88-3.88V134.2A3.88,3.88,0,0,1,107.12,130.33Z"/><path class="cls-1" d="M148.8,135.17h17.45a3.87,3.87,0,0,1,3.87,3.87v17.44a3.87,3.87,0,0,1-3.87,3.87H148.8a3.88,3.88,0,0,1-3.88-3.88V139A3.88,3.88,0,0,1,148.8,135.17Z"/><path class="cls-1" d="M144,130.33h27.14A3.88,3.88,0,0,1,175,134.2v27.13a3.87,3.87,0,0,1-3.87,3.87H144a3.88,3.88,0,0,1-3.88-3.88V134.2A3.88,3.88,0,0,1,144,130.33Z"/><path class="cls-1" d="M180.78,130.33h27.14a3.88,3.88,0,0,1,3.88,3.88v27.13a3.87,3.87,0,0,1-3.87,3.87H180.78a3.88,3.88,0,0,1-3.88-3.88V134.2A3.88,3.88,0,0,1,180.78,130.33Z"/><path class="cls-1" d="M185.63,135.17h17.45A3.87,3.87,0,0,1,207,139v17.44a3.88,3.88,0,0,1-3.88,3.88H185.63a3.88,3.88,0,0,1-3.88-3.88V139A3.88,3.88,0,0,1,185.63,135.17Z"/><path class="cls-1" d="M222.46,135.17h17.45a3.88,3.88,0,0,1,3.88,3.88v17.44a3.87,3.87,0,0,1-3.87,3.87H222.46a3.88,3.88,0,0,1-3.88-3.88V139A3.88,3.88,0,0,1,222.46,135.17Z"/><path class="cls-1" d="M217.61,130.33h27.14a3.88,3.88,0,0,1,3.88,3.88v27.13a3.88,3.88,0,0,1-3.88,3.88H217.62a3.88,3.88,0,0,1-3.88-3.88V134.2A3.87,3.87,0,0,1,217.61,130.33Z"/><path class="cls-1" d="M259.29,135.17h17.45a3.87,3.87,0,0,1,3.87,3.87v17.44a3.88,3.88,0,0,1-3.88,3.88H259.29a3.88,3.88,0,0,1-3.88-3.88V139A3.88,3.88,0,0,1,259.29,135.17Z"/><path class="cls-1" d="M254.45,130.33h27.14a3.88,3.88,0,0,1,3.88,3.88v27.12a3.88,3.88,0,0,1-3.88,3.88H254.45a3.88,3.88,0,0,1-3.88-3.88V134.2A3.87,3.87,0,0,1,254.45,130.33Z"/><path class="cls-1" d="M296.13,135.17h17.45a3.88,3.88,0,0,1,3.88,3.88v17.44a3.87,3.87,0,0,1-3.87,3.87H296.13a3.88,3.88,0,0,1-3.88-3.88V139A3.88,3.88,0,0,1,296.13,135.17Z"/><path class="cls-1" d="M291.28,130.33h27.14a3.88,3.88,0,0,1,3.88,3.88v27.13a3.88,3.88,0,0,1-3.88,3.88H291.28a3.88,3.88,0,0,1-3.88-3.88V134.2A3.87,3.87,0,0,1,291.28,130.33Z"/><path class="cls-1" d="M333,135.17H350.4a3.88,3.88,0,0,1,3.88,3.88v17.44a3.87,3.87,0,0,1-3.87,3.87H333a3.88,3.88,0,0,1-3.88-3.88V139A3.88,3.88,0,0,1,333,135.17Z"/><path class="cls-1" d="M328.11,130.33h27.14a3.88,3.88,0,0,1,3.88,3.88v27.13a3.88,3.88,0,0,1-3.88,3.88H328.11a3.88,3.88,0,0,1-3.88-3.88V134.2A3.87,3.87,0,0,1,328.11,130.33Z"/><path class="cls-1" d="M369.79,135.17h17.45a3.87,3.87,0,0,1,3.87,3.87v17.44a3.88,3.88,0,0,1-3.88,3.88H369.79a3.88,3.88,0,0,1-3.88-3.88V139A3.88,3.88,0,0,1,369.79,135.17Z"/><path class="cls-1" d="M364.94,130.33h27.14A3.88,3.88,0,0,1,396,134.2v27.13a3.88,3.88,0,0,1-3.88,3.88H364.94a3.88,3.88,0,0,1-3.88-3.88V134.2A3.87,3.87,0,0,1,364.94,130.33Z"/><path class="cls-1" d="M406.62,135.17h17.45a3.88,3.88,0,0,1,3.88,3.88v17.44a3.88,3.88,0,0,1-3.88,3.88H406.62a3.87,3.87,0,0,1-3.87-3.87V139A3.88,3.88,0,0,1,406.62,135.17Z"/><path class="cls-1" d="M401.78,130.33h27.14a3.87,3.87,0,0,1,3.87,3.87v27.13a3.88,3.88,0,0,1-3.88,3.88H401.77a3.88,3.88,0,0,1-3.88-3.88V134.2A3.88,3.88,0,0,1,401.78,130.33Z"/><path class="cls-1" d="M443.45,135.17H460.9a3.88,3.88,0,0,1,3.88,3.88v17.44a3.88,3.88,0,0,1-3.88,3.88H443.45a3.88,3.88,0,0,1-3.88-3.88V139A3.87,3.87,0,0,1,443.45,135.17Z"/><path class="cls-1" d="M438.61,130.33h27.14a3.88,3.88,0,0,1,3.88,3.88v27.13a3.88,3.88,0,0,1-3.88,3.88H438.61a3.88,3.88,0,0,1-3.88-3.88V134.2A3.87,3.87,0,0,1,438.61,130.33Z"/><path class="cls-1" d="M480.29,135.17h17.45a3.88,3.88,0,0,1,3.88,3.88v17.44a3.87,3.87,0,0,1-3.87,3.87H480.29a3.88,3.88,0,0,1-3.88-3.88V139A3.88,3.88,0,0,1,480.29,135.17Z"/><path class="cls-1" d="M475.44,130.33h27.14a3.87,3.87,0,0,1,3.87,3.87v27.13a3.88,3.88,0,0,1-3.88,3.88H475.44a3.88,3.88,0,0,1-3.88-3.88V134.2A3.88,3.88,0,0,1,475.44,130.33Z"/><path class="cls-1" d="M65.44,98.35H82.89a3.88,3.88,0,0,1,3.88,3.88v17.44a3.88,3.88,0,0,1-3.88,3.88H65.44a3.87,3.87,0,0,1-3.87-3.87V102.23A3.88,3.88,0,0,1,65.44,98.35Z"/><path class="cls-1" d="M60.59,93.51H87.73a3.88,3.88,0,0,1,3.88,3.88v27.13a3.87,3.87,0,0,1-3.87,3.87H60.59a3.88,3.88,0,0,1-3.88-3.88V97.38A3.88,3.88,0,0,1,60.59,93.51Z"/><path class="cls-1" d="M102.27,98.35h17.45a3.88,3.88,0,0,1,3.88,3.88v17.44a3.88,3.88,0,0,1-3.88,3.88H102.27a3.88,3.88,0,0,1-3.88-3.88V102.23A3.87,3.87,0,0,1,102.27,98.35Z"/><path class="cls-1" d="M97.43,93.51h27.14a3.88,3.88,0,0,1,3.88,3.88v27.13a3.87,3.87,0,0,1-3.87,3.87H97.43a3.88,3.88,0,0,1-3.88-3.88V97.38A3.88,3.88,0,0,1,97.43,93.51Z"/><path class="cls-1" d="M139.1,98.35h17.45a3.87,3.87,0,0,1,3.87,3.87v17.44a3.87,3.87,0,0,1-3.87,3.87H139.1a3.88,3.88,0,0,1-3.88-3.88V102.23A3.88,3.88,0,0,1,139.1,98.35Z"/><path class="cls-1" d="M134.26,93.51H161.4a3.88,3.88,0,0,1,3.88,3.88v27.13a3.87,3.87,0,0,1-3.87,3.87H134.26a3.88,3.88,0,0,1-3.88-3.88V97.38A3.88,3.88,0,0,1,134.26,93.51Z"/><path class="cls-1" d="M171.09,93.51h27.14a3.88,3.88,0,0,1,3.88,3.88v27.13a3.87,3.87,0,0,1-3.87,3.87H171.09a3.88,3.88,0,0,1-3.88-3.88V97.38A3.88,3.88,0,0,1,171.09,93.51Z"/><path class="cls-1" d="M175.94,98.35h17.45a3.87,3.87,0,0,1,3.87,3.87v17.44a3.88,3.88,0,0,1-3.88,3.88H175.94a3.88,3.88,0,0,1-3.88-3.88V102.23A3.88,3.88,0,0,1,175.94,98.35Z"/><path class="cls-1" d="M212.77,98.35h17.45a3.88,3.88,0,0,1,3.88,3.88v17.44a3.87,3.87,0,0,1-3.87,3.87H212.77a3.88,3.88,0,0,1-3.88-3.88V102.23A3.88,3.88,0,0,1,212.77,98.35Z"/><path class="cls-1" d="M207.92,93.51h27.14a3.88,3.88,0,0,1,3.88,3.88v27.13a3.88,3.88,0,0,1-3.88,3.88H207.92a3.88,3.88,0,0,1-3.88-3.88V97.38A3.87,3.87,0,0,1,207.92,93.51Z"/><path class="cls-1" d="M249.6,98.35h17.45a3.87,3.87,0,0,1,3.87,3.87v17.44a3.87,3.87,0,0,1-3.87,3.87H249.6a3.88,3.88,0,0,1-3.88-3.88V102.23A3.88,3.88,0,0,1,249.6,98.35Z"/><path class="cls-1" d="M244.75,93.51h27.14a3.88,3.88,0,0,1,3.88,3.88v27.12a3.88,3.88,0,0,1-3.88,3.88H244.75a3.88,3.88,0,0,1-3.88-3.88V97.38A3.87,3.87,0,0,1,244.75,93.51Z"/><path class="cls-1" d="M286.43,98.35h17.45a3.88,3.88,0,0,1,3.88,3.88v17.44a3.87,3.87,0,0,1-3.87,3.87H286.43a3.88,3.88,0,0,1-3.88-3.88V102.23A3.88,3.88,0,0,1,286.43,98.35Z"/><path class="cls-1" d="M281.58,93.51h27.14a3.88,3.88,0,0,1,3.88,3.88v27.13a3.88,3.88,0,0,1-3.88,3.88H281.59a3.88,3.88,0,0,1-3.88-3.88V97.38A3.87,3.87,0,0,1,281.58,93.51Z"/><path class="cls-1" d="M323.26,98.35h17.45a3.88,3.88,0,0,1,3.88,3.88v17.44a3.87,3.87,0,0,1-3.87,3.87H323.27a3.88,3.88,0,0,1-3.88-3.88V102.23A3.88,3.88,0,0,1,323.26,98.35Z"/><path class="cls-1" d="M318.42,93.51h27.14a3.88,3.88,0,0,1,3.88,3.88v27.13a3.88,3.88,0,0,1-3.88,3.88H318.42a3.88,3.88,0,0,1-3.88-3.88V97.38A3.87,3.87,0,0,1,318.42,93.51Z"/><path class="cls-1" d="M360.1,98.35h17.45a3.87,3.87,0,0,1,3.87,3.87v17.44a3.88,3.88,0,0,1-3.88,3.88H360.1a3.88,3.88,0,0,1-3.88-3.88V102.23A3.88,3.88,0,0,1,360.1,98.35Z"/><path class="cls-1" d="M355.25,93.51h27.14a3.88,3.88,0,0,1,3.88,3.88v27.13a3.88,3.88,0,0,1-3.88,3.88H355.25a3.88,3.88,0,0,1-3.88-3.88V97.38A3.87,3.87,0,0,1,355.25,93.51Z"/><path class="cls-1" d="M396.93,98.35h17.45a3.88,3.88,0,0,1,3.88,3.88v17.44a3.88,3.88,0,0,1-3.88,3.88H396.93a3.87,3.87,0,0,1-3.87-3.87V102.23A3.88,3.88,0,0,1,396.93,98.35Z"/><path class="cls-1" d="M392.08,93.51h27.14a3.87,3.87,0,0,1,3.87,3.87v27.13a3.88,3.88,0,0,1-3.88,3.88H392.08a3.88,3.88,0,0,1-3.88-3.88V97.39A3.88,3.88,0,0,1,392.08,93.51Z"/><path class="cls-1" d="M433.76,98.35h17.45a3.88,3.88,0,0,1,3.88,3.88v17.44a3.88,3.88,0,0,1-3.88,3.88H433.76a3.88,3.88,0,0,1-3.88-3.88V102.23A3.87,3.87,0,0,1,433.76,98.35Z"/><path class="cls-1" d="M428.91,93.51h27.14a3.88,3.88,0,0,1,3.88,3.88v27.13a3.88,3.88,0,0,1-3.88,3.88H428.92a3.88,3.88,0,0,1-3.88-3.88V97.38A3.87,3.87,0,0,1,428.91,93.51Z"/><path class="cls-1" d="M470.59,98.35H488a3.88,3.88,0,0,1,3.88,3.88v17.44a3.87,3.87,0,0,1-3.87,3.87H470.59a3.88,3.88,0,0,1-3.88-3.88V102.23A3.88,3.88,0,0,1,470.59,98.35Z"/><path class="cls-1" d="M465.75,93.51h27.14a3.87,3.87,0,0,1,3.87,3.87v27.13a3.88,3.88,0,0,1-3.88,3.88H465.75a3.88,3.88,0,0,1-3.88-3.88V97.39A3.88,3.88,0,0,1,465.75,93.51Z"/><path class="cls-1" d="M50.9,167.14H78A3.88,3.88,0,0,1,81.92,171v27.13A3.88,3.88,0,0,1,78,202H50.9A3.88,3.88,0,0,1,47,198.14V171A3.87,3.87,0,0,1,50.9,167.14Z"/><path class="cls-1" d="M55.75,172H73.2a3.88,3.88,0,0,1,3.88,3.88V193.3a3.87,3.87,0,0,1-3.87,3.87H55.75a3.88,3.88,0,0,1-3.88-3.88V175.86A3.88,3.88,0,0,1,55.75,172Z"/><path class="cls-1" d="M485.13,56.69h64A3.88,3.88,0,0,1,553,60.57V87.7a3.87,3.87,0,0,1-3.87,3.87h-64a3.88,3.88,0,0,1-3.88-3.88V60.57A3.88,3.88,0,0,1,485.13,56.69Z"/><rect class="cls-1" x="486.1" y="61.54" width="62.03" height="25.19" rx="3.88"/><path class="cls-1" d="M448.3,56.69h27.14a3.87,3.87,0,0,1,3.87,3.87V87.69a3.88,3.88,0,0,1-3.88,3.88H448.3a3.87,3.87,0,0,1-3.87-3.87V60.57A3.88,3.88,0,0,1,448.3,56.69Z"/><rect class="cls-1" x="449.27" y="61.54" width="25.2" height="25.19" rx="3.88"/><rect class="cls-1" x="412.44" y="61.54" width="25.2" height="25.19" rx="3.88"/><path class="cls-1" d="M411.47,56.69h27.14a3.88,3.88,0,0,1,3.88,3.88V87.7a3.87,3.87,0,0,1-3.87,3.87H411.47a3.88,3.88,0,0,1-3.88-3.88V60.57A3.87,3.87,0,0,1,411.47,56.69Z"/><path class="cls-1" d="M374.64,56.69h27.14a3.87,3.87,0,0,1,3.87,3.87V87.69a3.88,3.88,0,0,1-3.88,3.88H374.63a3.87,3.87,0,0,1-3.87-3.87V60.57A3.88,3.88,0,0,1,374.64,56.69Z"/><rect class="cls-1" x="375.61" y="61.54" width="25.2" height="25.19" rx="3.88"/><path class="cls-1" d="M337.8,56.69h27.14a3.88,3.88,0,0,1,3.88,3.88V87.7a3.87,3.87,0,0,1-3.87,3.87H337.8a3.88,3.88,0,0,1-3.88-3.88V60.57A3.87,3.87,0,0,1,337.8,56.69Z"/><rect class="cls-1" x="338.77" y="61.54" width="25.2" height="25.19" rx="3.88"/><path class="cls-1" d="M301,56.69h27.14A3.88,3.88,0,0,1,332,60.57V87.7a3.87,3.87,0,0,1-3.87,3.87H301a3.88,3.88,0,0,1-3.88-3.88V60.57A3.87,3.87,0,0,1,301,56.69Z"/><rect class="cls-1" x="301.94" y="61.54" width="25.2" height="25.19" rx="3.88"/><path class="cls-1" d="M264.14,56.69h27.14a3.88,3.88,0,0,1,3.88,3.88V87.7a3.87,3.87,0,0,1-3.87,3.87H264.14a3.88,3.88,0,0,1-3.88-3.88V60.57A3.87,3.87,0,0,1,264.14,56.69Z"/><rect class="cls-1" x="265.11" y="61.54" width="25.2" height="25.19" rx="3.88"/><path class="cls-1" d="M227.31,56.69h27.14a3.88,3.88,0,0,1,3.88,3.88V87.7a3.87,3.87,0,0,1-3.87,3.87H227.31a3.88,3.88,0,0,1-3.88-3.88V60.57A3.87,3.87,0,0,1,227.31,56.69Z"/><rect class="cls-1" x="228.28" y="61.54" width="25.2" height="25.19" rx="3.88"/><path class="cls-1" d="M190.47,56.69h27.14a3.88,3.88,0,0,1,3.88,3.88V87.7a3.87,3.87,0,0,1-3.87,3.87H190.48a3.88,3.88,0,0,1-3.88-3.88V60.57A3.87,3.87,0,0,1,190.47,56.69Z"/><rect class="cls-1" x="191.45" y="61.54" width="25.2" height="25.19" rx="3.88"/><path class="cls-1" d="M492.89,167.14h56.22A3.88,3.88,0,0,1,553,171v27.13a3.88,3.88,0,0,1-3.88,3.88H492.89a3.87,3.87,0,0,1-3.87-3.87V171A3.88,3.88,0,0,1,492.89,167.14Z"/><path class="cls-1" d="M497.73,172h46.53a3.88,3.88,0,0,1,3.88,3.88V193.3a3.87,3.87,0,0,1-3.87,3.87H497.73a3.88,3.88,0,0,1-3.88-3.88V175.86A3.88,3.88,0,0,1,497.73,172Z"/><path class="cls-1" d="M6.31,130.33H60.59a3.88,3.88,0,0,1,3.88,3.88v27.13a3.88,3.88,0,0,1-3.88,3.88H6.32a3.88,3.88,0,0,1-3.88-3.88V134.2a3.87,3.87,0,0,1,3.87-3.87Z"/><path class="cls-1" d="M11.16,135.17H55.75A3.88,3.88,0,0,1,59.63,139v17.44a3.87,3.87,0,0,1-3.87,3.87H11.16a3.88,3.88,0,0,1-3.88-3.88V139A3.88,3.88,0,0,1,11.16,135.17Z"/><rect class="cls-1" x="2.44" y="203.96" width="42.65" height="34.88" rx="3.88"/><path class="cls-1" d="M11.16,208.8h25.2a3.88,3.88,0,0,1,3.88,3.88v17.44A3.88,3.88,0,0,1,36.36,234H11.16a3.87,3.87,0,0,1-3.87-3.87V212.68A3.88,3.88,0,0,1,11.16,208.8Z"/><rect class="cls-1" x="154.61" y="61.54" width="25.2" height="25.19" rx="3.88"/><path class="cls-1" d="M153.64,56.69h27.14a3.88,3.88,0,0,1,3.88,3.88V87.7a3.87,3.87,0,0,1-3.87,3.87H153.64a3.88,3.88,0,0,1-3.88-3.88V60.57A3.87,3.87,0,0,1,153.64,56.69Z"/><path class="cls-1" d="M116.81,56.69H144a3.88,3.88,0,0,1,3.88,3.88V87.7A3.87,3.87,0,0,1,144,91.57H116.81a3.88,3.88,0,0,1-3.88-3.88V60.57A3.87,3.87,0,0,1,116.81,56.69Z"/><rect class="cls-1" x="117.78" y="61.54" width="25.2" height="25.19" rx="3.88"/><path class="cls-1" d="M80,56.69h27.14A3.88,3.88,0,0,1,111,60.57V87.7a3.87,3.87,0,0,1-3.87,3.87H80a3.88,3.88,0,0,1-3.88-3.88V60.57A3.87,3.87,0,0,1,80,56.69Z"/><rect class="cls-1" x="80.95" y="61.54" width="25.2" height="25.19" rx="3.88"/><path class="cls-1" d="M43.15,56.69H70.29a3.88,3.88,0,0,1,3.88,3.88V87.7a3.87,3.87,0,0,1-3.87,3.87H43.15a3.88,3.88,0,0,1-3.88-3.88V60.57A3.87,3.87,0,0,1,43.15,56.69Z"/><rect class="cls-1" x="44.12" y="61.54" width="25.2" height="25.19" rx="3.88"/><path class="cls-1" d="M6.32,56.69H33.46a3.87,3.87,0,0,1,3.87,3.87V87.7a3.87,3.87,0,0,1-3.87,3.87H6.31A3.87,3.87,0,0,1,2.44,87.7V60.57A3.88,3.88,0,0,1,6.32,56.69Z"/><rect class="cls-1" x="7.29" y="61.54" width="25.2" height="25.19" rx="3.88"/><line class="cls-1" x1="554.92" y1="54.75" x2="554.92" y2="240.77"/><line class="cls-1" x1="277.71" y1="240.77" x2="307.91" y2="240.77"/><polyline class="cls-1" points="554.92 54.76 0.5 54.76 0.5 240.77 277.71 240.77"/><line class="cls-1" x1="307.91" y1="240.77" x2="554.92" y2="240.77"/><polygon class="cls-1" points="682.86 240.77 682.86 202.02 646.03 202.02 646.03 165.2 607.26 165.2 607.26 202.02 570.43 202.02 570.43 240.77 682.86 240.77"/><rect class="cls-1" x="570.43" y="54.75" width="112.44" height="75.57"/><rect class="cls-1" x="698.37" y="54.75" width="149.27" height="186.02"/><rect class="cls-1" x="650.88" y="61.54" width="25.2" height="25.19" rx="3.88"/><path class="cls-1" d="M649.91,56.69H677a3.87,3.87,0,0,1,3.87,3.87V87.69A3.88,3.88,0,0,1,677,91.57H649.91A3.88,3.88,0,0,1,646,87.69V60.57A3.88,3.88,0,0,1,649.91,56.69Z"/><path class="cls-1" d="M613.07,56.69h27.14a3.88,3.88,0,0,1,3.88,3.88V87.7a3.87,3.87,0,0,1-3.87,3.87H613.08a3.88,3.88,0,0,1-3.88-3.88V60.57A3.87,3.87,0,0,1,613.07,56.69Z"/><rect class="cls-1" x="614.05" y="61.54" width="25.2" height="25.19" rx="3.88"/><path class="cls-1" d="M654.75,98.35H672.2a3.87,3.87,0,0,1,3.87,3.87v17.44a3.88,3.88,0,0,1-3.88,3.88H654.75a3.88,3.88,0,0,1-3.88-3.88V102.23A3.87,3.87,0,0,1,654.75,98.35Z"/><path class="cls-1" d="M649.91,93.51H677a3.88,3.88,0,0,1,3.88,3.88v27.12a3.88,3.88,0,0,1-3.88,3.88H649.91a3.88,3.88,0,0,1-3.88-3.88V97.38A3.87,3.87,0,0,1,649.91,93.51Z"/><path class="cls-1" d="M617.92,98.35h17.45a3.88,3.88,0,0,1,3.88,3.88v17.44a3.88,3.88,0,0,1-3.88,3.88H617.92a3.87,3.87,0,0,1-3.87-3.87V102.23A3.87,3.87,0,0,1,617.92,98.35Z"/><path class="cls-1" d="M613.07,93.51h27.14a3.88,3.88,0,0,1,3.88,3.88v27.13a3.88,3.88,0,0,1-3.88,3.88H613.08a3.88,3.88,0,0,1-3.88-3.88V97.38A3.87,3.87,0,0,1,613.07,93.51Z"/><path class="cls-1" d="M581.09,98.35h17.45a3.88,3.88,0,0,1,3.88,3.88v17.44a3.88,3.88,0,0,1-3.88,3.88H581.09a3.88,3.88,0,0,1-3.88-3.88V102.23A3.87,3.87,0,0,1,581.09,98.35Z"/><path class="cls-1" d="M576.24,93.51h27.14a3.87,3.87,0,0,1,3.87,3.87v27.13a3.88,3.88,0,0,1-3.88,3.88H576.24a3.88,3.88,0,0,1-3.88-3.88V97.39A3.88,3.88,0,0,1,576.24,93.51Z"/><rect class="cls-1" x="815.65" y="61.54" width="25.2" height="25.19" rx="3.88"/><path class="cls-1" d="M814.68,56.69h27.14a3.88,3.88,0,0,1,3.88,3.88V87.7a3.87,3.87,0,0,1-3.87,3.87H814.68a3.88,3.88,0,0,1-3.88-3.88V60.57A3.88,3.88,0,0,1,814.68,56.69Z"/><path class="cls-1" d="M814.68,93.51h27.14a3.88,3.88,0,0,1,3.88,3.88v63.94a3.88,3.88,0,0,1-3.88,3.88H814.68a3.87,3.87,0,0,1-3.87-3.87V97.39A3.88,3.88,0,0,1,814.68,93.51Z"/><path class="cls-1" d="M819.53,98.35H837a3.87,3.87,0,0,1,3.87,3.87v54.25a3.88,3.88,0,0,1-3.88,3.88H819.53a3.88,3.88,0,0,1-3.88-3.88V102.23A3.88,3.88,0,0,1,819.53,98.35Z"/><path class="cls-1" d="M782.7,208.8h17.45a3.88,3.88,0,0,1,3.88,3.88v17.44a3.88,3.88,0,0,1-3.88,3.88H782.7a3.87,3.87,0,0,1-3.87-3.87V212.68A3.88,3.88,0,0,1,782.7,208.8Z"/><rect class="cls-1" x="773.97" y="203.96" width="34.89" height="34.88" rx="3.88"/><rect class="cls-1" x="705.16" y="208.8" width="62.03" height="25.19" rx="3.88"/><rect class="cls-1" x="700.31" y="203.96" width="71.73" height="34.88" rx="3.88"/><path class="cls-1" d="M782.7,172h17.45a3.88,3.88,0,0,1,3.88,3.88V193.3a3.87,3.87,0,0,1-3.87,3.87H782.7a3.88,3.88,0,0,1-3.88-3.88V175.86A3.88,3.88,0,0,1,782.7,172Z"/><path class="cls-1" d="M777.85,167.14H805a3.87,3.87,0,0,1,3.87,3.87v27.13A3.88,3.88,0,0,1,805,202H777.85a3.88,3.88,0,0,1-3.88-3.88V171A3.88,3.88,0,0,1,777.85,167.14Z"/><path class="cls-1" d="M745.86,172h17.45a3.88,3.88,0,0,1,3.88,3.88V193.3a3.87,3.87,0,0,1-3.87,3.87H745.87A3.88,3.88,0,0,1,742,193.3V175.86A3.88,3.88,0,0,1,745.86,172Z"/><path class="cls-1" d="M741,167.14h27.14A3.87,3.87,0,0,1,772,171v27.13a3.88,3.88,0,0,1-3.88,3.88H741a3.88,3.88,0,0,1-3.88-3.88V171A3.88,3.88,0,0,1,741,167.14Z"/><path class="cls-1" d="M709,172h17.45a3.87,3.87,0,0,1,3.87,3.87V193.3a3.88,3.88,0,0,1-3.88,3.88H709a3.88,3.88,0,0,1-3.88-3.88V175.86A3.88,3.88,0,0,1,709,172Z"/><path class="cls-1" d="M704.19,167.14h27.14A3.88,3.88,0,0,1,735.2,171v27.13a3.88,3.88,0,0,1-3.88,3.88H704.19a3.88,3.88,0,0,1-3.88-3.88V171A3.87,3.87,0,0,1,704.19,167.14Z"/><path class="cls-1" d="M709,135.17h17.45a3.87,3.87,0,0,1,3.87,3.87v17.44a3.88,3.88,0,0,1-3.88,3.88H709a3.88,3.88,0,0,1-3.88-3.88V139A3.88,3.88,0,0,1,709,135.17Z"/><path class="cls-1" d="M704.19,130.33h27.14a3.87,3.87,0,0,1,3.87,3.87v27.13a3.88,3.88,0,0,1-3.88,3.88H704.19a3.88,3.88,0,0,1-3.88-3.88V134.2A3.88,3.88,0,0,1,704.19,130.33Z"/><path class="cls-1" d="M745.87,135.17h17.45a3.87,3.87,0,0,1,3.87,3.87v17.44a3.88,3.88,0,0,1-3.88,3.88H745.86a3.88,3.88,0,0,1-3.88-3.88V139A3.88,3.88,0,0,1,745.87,135.17Z"/><path class="cls-1" d="M741,130.33h27.14A3.88,3.88,0,0,1,772,134.2v27.13a3.88,3.88,0,0,1-3.88,3.88H741a3.87,3.87,0,0,1-3.87-3.87V134.2A3.88,3.88,0,0,1,741,130.33Z"/><path class="cls-1" d="M782.7,135.17h17.45A3.87,3.87,0,0,1,804,139v17.44a3.87,3.87,0,0,1-3.87,3.87H782.7a3.88,3.88,0,0,1-3.88-3.88V139A3.88,3.88,0,0,1,782.7,135.17Z"/><path class="cls-1" d="M777.85,130.33H805a3.88,3.88,0,0,1,3.88,3.88v27.12A3.88,3.88,0,0,1,805,165.2H777.85a3.88,3.88,0,0,1-3.88-3.88V134.2A3.87,3.87,0,0,1,777.85,130.33Z"/><path class="cls-1" d="M782.7,98.35h17.45a3.87,3.87,0,0,1,3.87,3.87v17.44a3.87,3.87,0,0,1-3.87,3.87H782.7a3.88,3.88,0,0,1-3.88-3.88V102.23A3.88,3.88,0,0,1,782.7,98.35Z"/><path class="cls-1" d="M777.85,93.51H805a3.88,3.88,0,0,1,3.88,3.88v27.13a3.88,3.88,0,0,1-3.88,3.88H777.85a3.88,3.88,0,0,1-3.88-3.88V97.38A3.87,3.87,0,0,1,777.85,93.51Z"/><path class="cls-1" d="M709,98.35h17.45a3.87,3.87,0,0,1,3.87,3.87v17.44a3.87,3.87,0,0,1-3.87,3.87H709a3.88,3.88,0,0,1-3.88-3.88V102.23A3.88,3.88,0,0,1,709,98.35Z"/><path class="cls-1" d="M704.19,93.51h27.14a3.87,3.87,0,0,1,3.87,3.87v27.13a3.88,3.88,0,0,1-3.88,3.88H704.19a3.88,3.88,0,0,1-3.88-3.88V97.39A3.88,3.88,0,0,1,704.19,93.51Z"/><path class="cls-1" d="M745.87,98.35h17.45a3.88,3.88,0,0,1,3.88,3.88v17.44a3.88,3.88,0,0,1-3.88,3.88H745.86a3.87,3.87,0,0,1-3.87-3.87V102.23A3.88,3.88,0,0,1,745.87,98.35Z"/><path class="cls-1" d="M741,93.51h27.14A3.87,3.87,0,0,1,772,97.38v27.13a3.88,3.88,0,0,1-3.88,3.88H741a3.88,3.88,0,0,1-3.88-3.88V97.39A3.88,3.88,0,0,1,741,93.51Z"/><rect class="cls-1" x="741.99" y="61.54" width="25.2" height="25.19" rx="3.88"/><path class="cls-1" d="M741,56.69h27.14A3.88,3.88,0,0,1,772,60.57V87.7a3.87,3.87,0,0,1-3.87,3.87H741a3.88,3.88,0,0,1-3.88-3.88V60.57A3.87,3.87,0,0,1,741,56.69Z"/><rect class="cls-1" x="778.82" y="61.54" width="25.2" height="25.19" rx="3.88"/><path class="cls-1" d="M777.85,56.69H805a3.88,3.88,0,0,1,3.88,3.88V87.7A3.87,3.87,0,0,1,805,91.57H777.85A3.88,3.88,0,0,1,774,87.69V60.57A3.87,3.87,0,0,1,777.85,56.69Z"/><rect class="cls-1" x="705.16" y="61.54" width="25.2" height="25.19" rx="3.88"/><path class="cls-1" d="M704.19,56.69h27.14a3.88,3.88,0,0,1,3.88,3.88V87.7a3.87,3.87,0,0,1-3.87,3.87H704.19a3.88,3.88,0,0,1-3.88-3.88V60.57A3.87,3.87,0,0,1,704.19,56.69Z"/><path class="cls-1" d="M11.16,98.35h34.9a3.87,3.87,0,0,1,3.87,3.87v17.44a3.88,3.88,0,0,1-3.88,3.88H11.16a3.88,3.88,0,0,1-3.88-3.88V102.23A3.87,3.87,0,0,1,11.16,98.35Z"/><path class="cls-1" d="M6.31,93.51H50.9a3.88,3.88,0,0,1,3.88,3.88v27.13a3.88,3.88,0,0,1-3.88,3.88H6.32a3.88,3.88,0,0,1-3.88-3.88V97.38A3.87,3.87,0,0,1,6.31,93.51Z"/><rect class="cls-1" x="577.21" y="61.54" width="25.2" height="25.19" rx="3.88"/><path class="cls-1" d="M576.24,56.69h27.14a3.88,3.88,0,0,1,3.88,3.88V87.7a3.87,3.87,0,0,1-3.87,3.87H576.24a3.88,3.88,0,0,1-3.88-3.88V60.57A3.88,3.88,0,0,1,576.24,56.69Z"/><rect class="cls-1" x="136.2" y="203.96" width="238.44" height="34.88" rx="3.88"/><path class="cls-1" d="M144.92,208.8h221a3.88,3.88,0,0,1,3.88,3.88v17.44a3.88,3.88,0,0,1-3.88,3.88h-221a3.88,3.88,0,0,1-3.88-3.88V212.68A3.87,3.87,0,0,1,144.92,208.8Z"/><text class="cls-2" transform="translate(236.03 217.67)">spacebar</text><g id="ArrowLeft"><rect class="cls-1" x="572.37" y="203.96" width="34.89" height="34.88" rx="3.88"/><path class="cls-1" d="M581.09,208.8h17.45a3.88,3.88,0,0,1,3.88,3.88v17.44a3.88,3.88,0,0,1-3.88,3.88H581.09a3.87,3.87,0,0,1-3.87-3.87V212.68A3.88,3.88,0,0,1,581.09,208.8Z"/><text class="cls-2" transform="translate(587.22 217.67)">&lt;</text></g><g id="Enter"><path class="cls-1" d="M553,161.33v-64a3.71,3.71,0,0,0-3.88-3.87H502.58a3.72,3.72,0,0,0-3.88,3.87v27.13a3.73,3.73,0,0,0,3.88,3.88h1.94a3.72,3.72,0,0,1,3.88,3.87v29.07a3.71,3.71,0,0,0,3.87,3.87H549.1A3.71,3.71,0,0,0,553,161.33Z"/><path class="cls-1" d="M544.26,98.35H507.43a3.72,3.72,0,0,0-3.88,3.88v17.44a3.71,3.71,0,0,0,3.88,3.87h1.93a3.72,3.72,0,0,1,3.88,3.88v29.06a3.73,3.73,0,0,0,3.88,3.88h27.14a3.73,3.73,0,0,0,3.88-3.88V102.23A3.73,3.73,0,0,0,544.26,98.35Z"/><text class="cls-2" transform="translate(516.15 107.24)">enter</text></g><g id="Escape"><path class="cls-1" d="M6.31,2.44H33.46a3.88,3.88,0,0,1,3.88,3.88V33.44a3.87,3.87,0,0,1-3.87,3.87H6.32a3.88,3.88,0,0,1-3.88-3.88V6.31A3.87,3.87,0,0,1,6.31,2.44Z"/><path class="cls-1" d="M11.16,7.28H28.61a3.88,3.88,0,0,1,3.88,3.88V28.59a3.88,3.88,0,0,1-3.88,3.88H11.16A3.87,3.87,0,0,1,7.29,28.6V11.16A3.88,3.88,0,0,1,11.16,7.28Z"/><text class="cls-2" transform="translate(13.28 16.16)">esc</text></g><g id="NumPadEnter"><path class="cls-1" d="M819.53,172H837a3.87,3.87,0,0,1,3.87,3.87v54.25A3.88,3.88,0,0,1,837,234H819.53a3.87,3.87,0,0,1-3.87-3.87V175.86A3.88,3.88,0,0,1,819.53,172Z"/><rect class="cls-1" x="810.81" y="167.14" width="34.89" height="71.7" rx="3.88"/><text class="cls-2" transform="translate(817.76 204.75)">enter</text></g><g id="ArrowRight"><rect class="cls-1" x="646.03" y="203.96" width="34.89" height="34.88" rx="3.88"/><path class="cls-1" d="M654.75,208.8H672.2a3.88,3.88,0,0,1,3.88,3.88v17.44A3.88,3.88,0,0,1,672.2,234H654.75a3.87,3.87,0,0,1-3.87-3.87V212.68A3.88,3.88,0,0,1,654.75,208.8Z"/><text class="cls-2" transform="matrix(-1, 0, 0, 1, 665.38, 217.67)">&lt;</text></g><g id="ArrowUp"><path class="cls-1" d="M617.92,172h17.45a3.88,3.88,0,0,1,3.88,3.88V193.3a3.88,3.88,0,0,1-3.88,3.88H617.92A3.87,3.87,0,0,1,614,193.3V175.86A3.88,3.88,0,0,1,617.92,172Z"/><path class="cls-1" d="M613.08,167.14h27.14a3.88,3.88,0,0,1,3.88,3.88v27.13a3.88,3.88,0,0,1-3.88,3.88H613.07a3.87,3.87,0,0,1-3.87-3.87V171A3.88,3.88,0,0,1,613.08,167.14Z"/><text class="cls-2" transform="matrix(0, 1, 1, 0, 628.59, 176.97)">&lt;</text></g><g id="ArrowDown"><path class="cls-1" d="M617.92,208.8h17.45a3.87,3.87,0,0,1,3.87,3.87v17.44a3.88,3.88,0,0,1-3.88,3.88H617.92a3.88,3.88,0,0,1-3.88-3.88V212.68A3.88,3.88,0,0,1,617.92,208.8Z"/><rect class="cls-1" x="609.2" y="203.96" width="34.89" height="34.88" rx="3.88"/><text class="cls-2" transform="translate(628.42 217.67) rotate(-90)">&lt;</text></g><g id="F1"><path class="cls-1" d="M81.92,2.44h27.14a3.88,3.88,0,0,1,3.88,3.88V33.44a3.87,3.87,0,0,1-3.87,3.87H81.92A3.88,3.88,0,0,1,78,33.44V6.31a3.87,3.87,0,0,1,3.87-3.87Z"/><path class="cls-1" d="M86.76,7.28h17.45a3.87,3.87,0,0,1,3.87,3.87V28.59a3.88,3.88,0,0,1-3.88,3.88H86.76a3.88,3.88,0,0,1-3.88-3.88V11.16A3.88,3.88,0,0,1,86.76,7.28Z"/></g><g id="F2"><path class="cls-1" d="M123.6,7.28H141a3.88,3.88,0,0,1,3.88,3.88V28.59A3.88,3.88,0,0,1,141,32.47H123.59a3.87,3.87,0,0,1-3.87-3.87V11.16A3.88,3.88,0,0,1,123.6,7.28Z"/><path class="cls-1" d="M118.75,2.44h27.14a3.88,3.88,0,0,1,3.88,3.88V33.44a3.87,3.87,0,0,1-3.87,3.87H118.75a3.88,3.88,0,0,1-3.88-3.88V6.31a3.87,3.87,0,0,1,3.87-3.87Z"/></g><g id="F3"><path class="cls-1" d="M155.58,2.44h27.14a3.88,3.88,0,0,1,3.88,3.88V33.44a3.88,3.88,0,0,1-3.88,3.88H155.58a3.87,3.87,0,0,1-3.87-3.87V6.31a3.87,3.87,0,0,1,3.87-3.87Z"/><path class="cls-1" d="M160.43,7.28h17.45a3.88,3.88,0,0,1,3.88,3.88V28.59a3.88,3.88,0,0,1-3.88,3.88H160.43a3.87,3.87,0,0,1-3.87-3.87V11.16A3.88,3.88,0,0,1,160.43,7.28Z"/></g><g id="F4"><path class="cls-1" d="M192.41,2.44h27.14a3.88,3.88,0,0,1,3.88,3.88V33.44a3.88,3.88,0,0,1-3.88,3.88H192.41a3.88,3.88,0,0,1-3.88-3.88V6.31a3.87,3.87,0,0,1,3.87-3.87Z"/><path class="cls-1" d="M197.26,7.28h17.45a3.88,3.88,0,0,1,3.88,3.88V28.59a3.88,3.88,0,0,1-3.88,3.88H197.26a3.87,3.87,0,0,1-3.87-3.87V11.16A3.88,3.88,0,0,1,197.26,7.28Z"/></g><g id="F5"><path class="cls-1" d="M251.54,7.28H269a3.87,3.87,0,0,1,3.87,3.87V28.59A3.88,3.88,0,0,1,269,32.47H251.54a3.88,3.88,0,0,1-3.88-3.88V11.16A3.88,3.88,0,0,1,251.54,7.28Z"/><path class="cls-1" d="M246.69,2.44h27.14a3.88,3.88,0,0,1,3.88,3.88V33.44a3.87,3.87,0,0,1-3.87,3.87H246.69a3.88,3.88,0,0,1-3.88-3.88V6.31a3.88,3.88,0,0,1,3.88-3.88Z"/></g><g id="F6"><path class="cls-1" d="M283.52,2.44h27.14a3.88,3.88,0,0,1,3.88,3.88V33.44a3.87,3.87,0,0,1-3.87,3.87H283.52a3.87,3.87,0,0,1-3.87-3.87V6.31a3.87,3.87,0,0,1,3.87-3.87Z"/><path class="cls-1" d="M288.37,7.28h17.45a3.88,3.88,0,0,1,3.88,3.88V28.59a3.88,3.88,0,0,1-3.88,3.88H288.37a3.87,3.87,0,0,1-3.87-3.87V11.16A3.88,3.88,0,0,1,288.37,7.28Z"/></g><g id="F7"><path class="cls-1" d="M325.2,7.28h17.45a3.88,3.88,0,0,1,3.88,3.88V28.59a3.88,3.88,0,0,1-3.88,3.88H325.2a3.87,3.87,0,0,1-3.87-3.87V11.16A3.88,3.88,0,0,1,325.2,7.28Z"/><path class="cls-1" d="M320.36,2.44H347.5a3.88,3.88,0,0,1,3.88,3.88V33.44a3.87,3.87,0,0,1-3.87,3.87H320.36a3.88,3.88,0,0,1-3.88-3.88V6.31a3.87,3.87,0,0,1,3.87-3.87Z"/></g><g id="F8"><path class="cls-1" d="M362,7.28h17.45a3.88,3.88,0,0,1,3.88,3.88V28.59a3.88,3.88,0,0,1-3.88,3.88H362a3.87,3.87,0,0,1-3.87-3.87V11.16A3.88,3.88,0,0,1,362,7.28Z"/><path class="cls-1" d="M357.19,2.44h27.14a3.88,3.88,0,0,1,3.88,3.88V33.44a3.87,3.87,0,0,1-3.87,3.87H357.19a3.88,3.88,0,0,1-3.88-3.88V6.31a3.87,3.87,0,0,1,3.87-3.87Z"/></g><g id="F9"><path class="cls-1" d="M416.31,7.28h17.45a3.87,3.87,0,0,1,3.87,3.87V28.59a3.88,3.88,0,0,1-3.88,3.88H416.31a3.88,3.88,0,0,1-3.88-3.88V11.16A3.88,3.88,0,0,1,416.31,7.28Z"/><path class="cls-1" d="M411.47,2.44h27.14a3.88,3.88,0,0,1,3.88,3.88V33.44a3.87,3.87,0,0,1-3.87,3.87H411.47a3.88,3.88,0,0,1-3.88-3.88V6.31a3.87,3.87,0,0,1,3.87-3.87Z"/></g><g id="F10"><path class="cls-1" d="M448.3,2.44h27.14a3.88,3.88,0,0,1,3.88,3.88V33.44a3.87,3.87,0,0,1-3.87,3.87H448.3a3.88,3.88,0,0,1-3.88-3.88V6.31a3.87,3.87,0,0,1,3.87-3.87Z"/><rect class="cls-1" x="449.27" y="7.28" width="25.2" height="25.19" rx="3.88"/></g><g id="F11"><rect class="cls-1" x="486.1" y="7.28" width="25.2" height="25.19" rx="3.88"/><path class="cls-1" d="M485.13,2.44h27.14a3.88,3.88,0,0,1,3.88,3.88V33.44a3.87,3.87,0,0,1-3.87,3.87H485.13a3.88,3.88,0,0,1-3.88-3.88V6.31a3.87,3.87,0,0,1,3.87-3.87Z"/></g><g id="F12"><path class="cls-1" d="M526.81,7.28h17.45a3.88,3.88,0,0,1,3.88,3.88V28.59a3.88,3.88,0,0,1-3.88,3.88H526.81a3.87,3.87,0,0,1-3.87-3.87V11.16A3.88,3.88,0,0,1,526.81,7.28Z"/><path class="cls-1" d="M522,2.44h27.14A3.88,3.88,0,0,1,553,6.31V33.44a3.87,3.87,0,0,1-3.87,3.87H522a3.88,3.88,0,0,1-3.88-3.88V6.31A3.87,3.87,0,0,1,522,2.44Z"/></g><g id="PrtScSysRq"><path class="cls-1" d="M576.24,2.44h27.14a3.88,3.88,0,0,1,3.88,3.88V33.44a3.87,3.87,0,0,1-3.87,3.87H576.24a3.88,3.88,0,0,1-3.88-3.88V6.31a3.87,3.87,0,0,1,3.87-3.87Z"/><path class="cls-1" d="M581.09,7.28h17.45a3.88,3.88,0,0,1,3.88,3.88V28.6a3.87,3.87,0,0,1-3.87,3.87H581.09a3.88,3.88,0,0,1-3.88-3.88V11.16A3.88,3.88,0,0,1,581.09,7.28Z"/></g><g id="ScrLk"><path class="cls-1" d="M613.07,2.44h27.14a3.88,3.88,0,0,1,3.88,3.88V33.44a3.87,3.87,0,0,1-3.87,3.87H613.08a3.88,3.88,0,0,1-3.88-3.88V6.31a3.87,3.87,0,0,1,3.87-3.87Z"/><path class="cls-1" d="M617.92,7.28h17.45a3.88,3.88,0,0,1,3.88,3.88V28.6a3.87,3.87,0,0,1-3.87,3.87H617.92A3.88,3.88,0,0,1,614,28.59V11.16A3.88,3.88,0,0,1,617.92,7.28Z"/></g><g id="PauseBreak"><path class="cls-1" d="M654.75,7.28H672.2a3.88,3.88,0,0,1,3.88,3.88V28.59a3.88,3.88,0,0,1-3.88,3.88H654.75a3.87,3.87,0,0,1-3.87-3.87V11.16A3.88,3.88,0,0,1,654.75,7.28Z"/><path class="cls-1" d="M649.91,2.44H677a3.87,3.87,0,0,1,3.87,3.87V33.44A3.88,3.88,0,0,1,677,37.32H649.91A3.87,3.87,0,0,1,646,33.44V6.32A3.88,3.88,0,0,1,649.91,2.44Z"/></g></g></g></svg>