<svg xmlns="http://www.w3.org/2000/svg" viewBox="0 0 552 120.13"><defs><style>.cls-1{fill: #fff;font-size:27.36px;font-family:CourierNewPS-BoldMT, Courier New;font-weight:700;}</style></defs><g id="Layer_2"><g id="Layer_1-2"><text class="cls-1" transform="translate(195.69 63.78)">spacebar</text><path fill="#fff" d="M275.94,0q39.81,0,79.62,0Q443.3.1,531.05.19c8.25,0,15.33,2.06,18.82,10.18,3.07,7.12,2.13,14.77,1.15,22.18-.16,1.24-3,2.6-4.79,3-2.67.65-5.12-.59-5.58-3.49A78.3,78.3,0,0,1,540,21.25c-.1-7.68-1.35-9.11-9-9.15q-41.06-.18-82.11-.24-160.53,0-321.06,0-52.5,0-105,.05c-10.06,0-11,1-11,11.11q0,38.07,0,76.13c0,7.52,1.54,9.07,9.14,9.07l509.26-.06c1.05,0,2.11,0,3.16-.14,5-.42,6.59-2,6.63-7.15.07-10,0-20,0-30,0-5.28,0-10.57.15-15.85.1-3.07,1-5.93,4.57-6.64,3.84-.76,6.74,1.32,6.92,5.47.34,8.33.43,16.67.39,25s0,16.93-.65,25.33c-.75,9.23-6.91,14.75-16.19,15.5-2.46.19-4.93.21-7.39.21q-70.14,0-140.27,0c-27.6,0-55.2.2-82.8.19q-75.41,0-150.82-.2c-20.31,0-40.63,0-60.94,0-24.43,0-48.86-.2-73.29-.14-8.57,0-14.68-3.57-18.26-11.27a14,14,0,0,1-1.22-5.72C.08,74.59.27,46.39,0,18.2-.07,10.73,7.16.23,17.63.37c14.79.2,29.6,0,44.4,0C85.52.27,109,.1,132.51.08Q204.23,0,275.94.06Z"/></g></g></svg>