<svg xmlns="http://www.w3.org/2000/svg" viewBox="0 0 119.58 119.25"><defs><style>.cls-1{fill:#fff;}</style></defs><g id="Layer_2"><g id="Layer_1-2"><path class="cls-1" d="M60.14,0c13.37,0,26.74,0,40.11,0,12.13,0,19.29,7.21,19.31,19.35q0,40.21,0,80.43c0,12.23-7.34,19.44-19.65,19.44q-40.11,0-80.22,0C7.2,119.24,0,112,0,99.46Q0,59.62,0,19.78C0,7.13,7.06.05,19.66,0,33.16,0,46.65,0,60.14,0Zm0,11.26H20.09c-6.77,0-8.81,2-8.81,8.6q0,39.81,0,79.64c0,6.35,2.19,8.49,8.59,8.49q39.9,0,79.8,0c6.4,0,8.62-2.16,8.62-8.47q0-40,0-80c0-6.12-2.17-8.23-8.41-8.25Q80,11.24,60.17,11.27Z"/><path class="cls-1" d="M54.15,68.94q0-14.55,0-29.12c0-1.25,0-2.5,0-3.74.24-3.88,2.35-6,5.74-6,3.22.06,5.33,2.16,5.46,5.85.16,4.24.06,8.48.06,12.72a172.88,172.88,0,0,0,.85,20.76c2.29-2.38,4.54-4.82,6.9-7.13,2.86-2.79,6.26-3,8.61-.63s2.18,5.67-.7,8.58q-8.28,8.4-16.69,16.67c-3.2,3.13-6,3.16-9.11.08q-8.57-8.38-17-16.92c-2.71-2.74-2.87-5.91-.62-8.3s5.75-2.33,8.6.41c2.39,2.31,4.66,4.75,7,7.13Z"/></g></g></svg>